<?xml version="1.0" encoding="utf-8"?>
<svg viewBox="0 0 48 48" xmlns="http://www.w3.org/2000/svg" width="48px" height="48px">
  <defs/>
  <path d="M 21.266 3.743 C 11.616 3.743 3.736 11.621 3.736 21.273 C 3.736 30.925 11.616 38.795 21.266 38.795 C 25.124 38.795 28.695 37.54 31.591 35.412 L 39.61 43.428 C 42.191 45.969 45.984 42.09 43.402 39.553 L 35.427 31.577 C 37.537 28.68 38.798 25.117 38.798 21.273 C 38.798 11.621 30.906 3.743 21.266 3.743 Z M 21.266 9.137 C 27.999 9.137 33.404 14.543 33.404 21.273 C 33.404 28.006 27.999 33.4 21.266 33.4 C 14.524 33.4 9.13 28.006 9.13 21.273 C 9.13 14.543 14.524 9.137 21.266 9.137 Z M 21.266 9.137" fill="#ffffff"/>
</svg>
